User Type,Username,Date,Text
[V],DownTYU,2011-09-14T00:56Z,"No he didn't
https://thepiratebay.org/torrent/6613629/
Plus HDChina is NOT SCENE...They are a private P2P rls group .http://hdchina.org/
They never put releases in rar...NEVER "
[V],DownTYU,2011-09-14T01:05Z,"Plus the info which a genius like you missed
Media Info is from the file I downloaded from HDCHINA

General
Unique ID                        : 227283247983244744745978372839737656085 (0xAAFD294BEE1E1472A1FF916931780315)
Complete name                    : H:\Everything.Must.Go.2010.BluRay.720p.x264.DTS-HDChina\Everything.Must.Go.2010.BluRay.720p.x264.DTS-HDChina.mkv
Format                           : Matroska
File size                        : 4.37 GiB
Duration                         : 1h 37mn
Overall bit rate                 : 6 448 Kbps
Encoded date                     : UTC 2011-08-18 10:34:04
Writing application              : mkvmerge v4.9.1 ('Ich will') built on Jul 11 2011 23:53:15
Writing library                  : libebml v1.2.1 + libmatroska v1.1.1

Video
ID                               : 1
Format                           : AVC
Format/Info                      : Advanced Video Codec
Format profile                   : High@L4.1
Format settings, CABAC           : Yes
Format settings, ReFrames        : 12 frames
Codec ID                         : V_MPEG4/ISO/AVC
Duration                         : 1h 37mn
Bit rate                         : 4 895 Kbps
Width                            : 1 280 pixels
Height                           : 534 pixels
Display aspect ratio             : 2.35:1
Frame rate                       : 23.976 fps
Color space                      : YUV
Chroma subsampling               : 4:2:0
Bit depth                        : 8 bits
Scan type                        : Progressive
Bits/(Pixel*Frame)               : 0.299
Stream size                      : 3.26 GiB (75%)
Title                            : x264 Video Stream
Writing library                  : x264 core 116 r2037 f8ebd4a
Encoding settings                : cabac=1 / ref=12 / deblock=1:-3:-2 / analyse=0x3:0x133 / me=umh / subme=10 / psy=1 / psy_rd=0.90:0.10 / mixed_ref=1 / me_range=32 / chroma_me=1 / trellis=2 / 8x8dct=1 / cqm=0 / deadzone=21,11 / fast_pskip=0 / chroma_qp_offset=-3 / threads=9 / sliced_threads=0 / nr=0 / decimate=0 / interlaced=0 / bluray_compat=0 / constrained_intra=0 / bframes=7 / b_pyramid=2 / b_adapt=2 / b_bias=0 / direct=3 / weightb=1 / open_gop=0 / weightp=2 / keyint=360 / keyint_min=2 / scenecut=40 / intra_refresh=0 / rc_lookahead=50 / rc=2pass / mbtree=1 / bitrate=4895 / ratetol=1.0 / qcomp=0.70 / qpmin=0 / qpmax=69 / qpstep=4 / cplxblur=20.0 / qblur=0.5 / vbv_maxrate=50000 / vbv_bufsize=30000 / nal_hrd=none / ip_ratio=1.40 / aq=2:1.00

Audio
ID                               : 2
Format                           : DTS
Format/Info                      : Digital Theater Systems
Codec ID                         : A_DTS
Duration                         : 1h 37mn
Bit rate mode                    : Constant
Bit rate                         : 1 510 Kbps
Channel(s)                       : 6 channels
Channel positions                : Front: L C R, Side: L R, LFE
Sampling rate                    : 48.0 KHz
Bit depth                        : 24 bits
Compression mode                 : Lossy
Stream size                      : 1.02 GiB (23%)
Title                            : English DTS 5.1
Language                         : English

Text #1
ID                               : 3
Format                           : PGS
Codec ID                         : S_HDMV/PGS
Codec ID/Info                    : The same subtitle format used on BDs/HD-DVDs
Title                            : English PGS
Language                         : English

Text #2
ID                               : 4
Format                           : PGS
Codec ID                         : S_HDMV/PGS
Codec ID/Info                    : The same subtitle format used on BDs/HD-DVDs
Title                            : English SDH PGS
Language                         : English

Menu
00:00:00.000                     : en:1. A New Direction
00:05:16.607                     : en:2. The Break-Up
00:10:37.720                     : en:3. Meet the Neighbors
00:16:09.718                     : en:4. Credit Crunch
00:22:37.773                     : en:5. Follow the Law
00:28:39.843"
[T],Ferrelas,2011-09-14T03:50Z,"Well excuse my for being usch a genius then. I grabbed a few torrents (from the top 20 or so with most seeders), all of them had folders, I don't want to seed those kinds of torrent so I reuploaded, what's your problem really? And what's anyone going to do with all that info anyway, make their own encode if they buy the disc? :P"
[T],Ferrelas,2011-09-14T04:03Z,"Besides, I naver mentioned anything about rar:s..."
[V],DownTYU,2011-09-14T05:36Z,"This is funny
I won't disturb you anymore...Do ur work
And don't use blasphemy in description. A bit annoying when one tries to figure out what the hell this is. LOL"
,justpassingby,2011-09-14T18:22Z,http://www.imdb.com/title/tt1531663/
